<?xml version="1.0" standalone="no"?>
<!DOCTYPE svg PUBLIC "-//W3C//DTD SVG 20010904//EN"
 "http://www.w3.org/TR/2001/REC-SVG-20010904/DTD/svg10.dtd">
<svg version="1.0" xmlns="http://www.w3.org/2000/svg"
 width="568.000000pt" height="568.000000pt" viewBox="0 0 568.000000 568.000000"
 preserveAspectRatio="xMidYMid meet">
<metadata>
Created by potrace 1.16, written by Peter Selinger 2001-2019
</metadata>
<g transform="translate(0.000000,568.000000) scale(0.100000,-0.100000)"
fill="#FF0000" stroke="none">
<path d="M2818 4853 c-14 -16 -110 -145 -213 -288 -103 -143 -195 -268 -204
-277 -15 -16 -37 -10 -373 99 -350 114 -358 116 -378 98 -19 -18 -20 -29 -20
-391 l0 -373 -346 -113 c-330 -107 -346 -114 -360 -143 -8 -16 -12 -22 -9 -12
3 11 1 15 -6 12 -13 -8 -6 -30 9 -30 6 0 110 -136 231 -302 l219 -302 -220
-303 c-122 -167 -221 -310 -222 -318 -1 -10 24 -23 71 -40 39 -14 75 -28 79
-32 4 -4 -27 4 -69 18 -81 27 -107 47 -91 69 5 8 105 145 222 305 116 160 212
296 212 301 0 12 -418 589 -427 589 -3 0 6 -15 19 -32 169 -225 398 -553 394
-564 -3 -8 -99 -143 -213 -300 -115 -156 -212 -291 -218 -299 -22 -33 29 -56
377 -169 l343 -112 5 -379 5 -380 5 390 5 390 2 -381 c3 -304 6 -384 17 -393
10 -8 28 -6 72 9 32 11 54 16 49 12 -17 -16 -105 -41 -123 -36 -15 5 -15 4 -2
-5 23 -15 738 219 732 239 -7 21 8 1 242 -322 115 -159 214 -288 220 -288 7 0
82 96 166 213 222 305 304 414 298 397 -4 -12 69 -39 355 -132 198 -64 366
-114 373 -111 10 4 13 85 14 396 0 215 3 393 5 396 3 2 6 -171 7 -385 l3 -389
5 380 5 379 343 112 c188 61 345 114 349 117 6 7 -79 -17 -126 -35 -15 -5 -22
-5 -16 0 12 11 146 57 158 54 35 -10 -11 65 -203 328 -121 166 -220 306 -220
311 0 5 97 143 216 307 119 163 218 302 221 308 2 7 1 14 -4 17 -5 3 -9 -2 -9
-11 0 -9 -98 -151 -217 -314 -119 -163 -217 -301 -217 -307 0 -9 270 -386 397
-554 23 -31 43 -62 43 -69 0 -6 -10 4 -23 23 -13 19 -114 159 -225 312 -111
153 -202 282 -202 288 0 6 99 147 220 314 194 267 219 306 211 327 -8 20 -52
37 -355 136 l-346 113 0 373 c0 362 -1 373 -20 391 -20 18 -28 16 -377 -98
-196 -64 -360 -114 -364 -111 -4 2 -96 127 -205 277 -204 282 -240 327 -259
327 -6 0 -23 -12 -37 -27z m242 -737 c110 -340 199 -624 196 -630 -2 -6 -5 -4
-5 4 -1 13 -52 15 -393 15 -339 0 -394 -2 -401 -15 -21 -42 17 84 139 460 75
228 163 501 197 606 34 105 63 188 64 185 1 -3 92 -284 203 -625z m-416 154
c-69 -212 -153 -470 -187 -573 l-62 -188 -117 162 c-74 102 -115 166 -109 173
11 14 185 253 414 569 99 136 181 246 183 245 2 -2 -53 -177 -122 -388z m611
-35 c156 -214 285 -394 287 -399 2 -8 -224 -328 -228 -323 -2 2 -358 1098
-370 1137 -6 21 -10 26 311 -415z m-1473 150 c3 0 10 -4 15 -9 5 -5 3 -6 -4
-2 -13 7 -18 -6 -7 -17 10 -10 34 4 27 17 -3 6 -3 8 1 4 4 -3 6 -10 4 -14 -4
-9 513 -181 526 -175 5 2 -20 13 -55 23 -35 11 -68 24 -73 28 -5 5 22 -1 60
-13 38 -12 71 -26 73 -31 4 -8 -215 -316 -225 -316 -6 0 13 27 139 198 38 52
67 95 65 97 -2 2 -45 -54 -96 -125 -51 -71 -99 -134 -107 -140 -12 -10 -56 47
-364 474 -13 17 -13 18 0 10 8 -5 17 -9 21 -9z m2093 -102 c-48 -65 -132 -182
-188 -260 -56 -77 -105 -139 -108 -137 -16 10 -220 300 -217 309 2 6 34 20 72
32 38 12 65 18 60 13 -5 -4 -38 -17 -73 -28 -35 -10 -60 -21 -55 -23 12 -5
530 166 524 174 -3 3 -1 9 4 14 5 4 6 3 3 -3 -4 -7 0 -15 8 -18 11 -4 15 0 13
11 -2 10 2 18 9 18 6 0 15 3 19 8 24 23 5 -6 -71 -110z m123 -240 l-3 -318 -5
305 c-3 168 -7 298 -8 290 -1 -8 -2 -144 -2 -302 l-1 -287 -47 16 c-26 9 -51
20 -57 25 -5 5 10 2 34 -7 24 -8 49 -15 55 -14 6 0 -54 23 -134 49 -80 27
-153 54 -162 60 -13 7 -20 5 -27 -8 -6 -9 -11 -13 -11 -8 0 4 76 112 169 240
93 128 175 242 182 254 8 12 15 22 16 22 2 0 2 -143 1 -317z m-2089 45 c94
-131 171 -241 171 -245 0 -5 -5 0 -11 9 -7 13 -14 15 -27 8 -9 -6 -82 -33
-162 -60 -80 -26 -140 -49 -134 -49 6 -1 31 6 55 14 24 9 39 12 34 7 -6 -5
-31 -16 -57 -25 l-47 -16 0 296 c0 163 -3 298 -6 301 -3 3 -5 -130 -5 -296 0
-165 -3 -303 -7 -305 -5 -3 -7 137 -5 311 2 263 5 313 16 301 7 -8 90 -121
185 -251z m334 -460 l106 -147 -591 -1 c-362 0 -589 3 -583 9 12 11 240 83
230 73 -3 -4 -50 -21 -103 -38 l-97 -32 564 -1 c310 -1 562 1 559 4 -3 3 -241
6 -529 6 l-524 1 405 134 c223 73 413 134 422 134 10 0 53 -51 110 -129 51
-71 95 -128 96 -126 2 2 -39 62 -90 133 -102 138 -121 167 -96 142 9 -8 63
-81 121 -162z m1427 147 c30 -9 59 -21 65 -26 5 -5 -24 2 -65 16 -41 14 -77
22 -80 18 -26 -31 -190 -262 -190 -268 0 -7 172 223 188 252 5 9 124 -26 427
-127 l420 -138 -524 -1 c-288 0 -526 -3 -529 -6 -3 -3 249 -5 559 -4 560 1
564 1 514 19 -27 10 -45 19 -39 19 15 1 107 -30 119 -40 5 -6 -240 -9 -583 -9
l-592 1 106 147 c133 183 125 174 138 169 6 -2 36 -12 66 -22z m-1406 -673
c-57 -174 -114 -350 -126 -391 -12 -41 -24 -69 -26 -63 -2 7 22 89 53 183 31
93 55 172 53 174 -2 2 -26 -62 -52 -143 -27 -81 -53 -158 -59 -172 -6 -14 -9
-29 -8 -35 2 -5 0 -7 -4 -3 -4 3 -7 10 -7 15 0 12 -19 33 -30 33 -6 0 -4 -8 3
-17 13 -16 12 -17 -3 -5 -10 8 -16 19 -15 24 1 6 -4 13 -12 16 -8 3 -11 0 -7
-7 11 -17 0 -13 -15 6 -12 15 -12 16 1 8 13 -8 13 -7 1 8 -16 20 -36 23 -25 5
4 -7 4 -10 0 -6 -4 3 -6 8 -4 11 5 6 -23 37 -34 37 -6 0 -4 -8 3 -17 13 -16
12 -17 -3 -4 -10 7 -16 17 -13 21 4 7 -48 50 -62 50 -4 0 6 -12 22 -26 l30
-26 -32 22 c-18 11 -32 26 -30 32 1 6 -4 13 -12 16 -10 3 -11 0 -5 -9 7 -12 5
-12 -9 0 -20 16 -23 26 -4 15 8 -5 8 -2 -2 9 -16 20 -36 23 -25 5 5 -9 2 -9
-9 1 -20 16 -23 26 -4 15 8 -5 8 -2 -2 9 -16 20 -36 23 -25 5 4 -8 3 -10 -2
-5 -5 5 -9 14 -9 20 0 5 -6 12 -14 15 -9 3 -11 0 -5 -9 7 -12 5 -12 -9 0 -20
16 -23 26 -4 15 8 -5 8 -2 -2 9 -16 20 -36 23 -25 5 4 -8 3 -10 -2 -5 -5 5 -9
12 -9 15 0 13 -16 32 -27 32 -6 0 -5 -7 3 -17 11 -16 11 -16 -1 -5 -8 7 -15
18 -15 24 0 6 -6 13 -14 16 -8 3 -11 0 -7 -7 11 -17 0 -13 -15 6 -12 14 -12
16 1 9 8 -4 -1 6 -20 23 -19 17 -39 31 -45 31 -5 0 4 -12 20 -26 l30 -26 -32
22 c-18 11 -32 26 -30 32 1 6 -4 13 -12 16 -8 3 -11 0 -7 -7 11 -17 0 -13 -15
6 -12 15 -12 16 1 8 13 -8 13 -7 1 8 -16 20 -36 23 -25 5 4 -7 5 -11 1 -8 -3
3 -6 10 -7 15 -3 15 -21 35 -32 35 -6 0 -4 -8 3 -17 11 -16 11 -16 -1 -5 -8 7
-15 18 -15 24 0 6 -6 13 -14 16 -9 3 -11 0 -5 -9 7 -12 5 -12 -9 0 -20 16 -23
26 -4 15 8 -5 8 -2 -2 9 -16 20 -36 23 -25 5 4 -8 3 -10 -2 -5 -5 5 -9 12 -9
15 0 13 -16 32 -27 32 -6 0 -5 -7 3 -17 13 -16 12 -17 -3 -4 -10 7 -16 17 -13
21 4 7 -48 50 -62 50 -4 0 6 -12 22 -26 l30 -26 -33 22 c-18 12 -31 25 -28 28
7 7 -13 32 -26 32 -6 0 -4 -8 3 -17 11 -16 11 -16 -1 -5 -8 7 -15 18 -15 24 0
6 -6 13 -14 16 -8 3 -11 0 -7 -7 11 -17 0 -13 -15 6 -12 15 -12 16 1 8 13 -8
13 -7 1 8 -16 20 -36 23 -25 5 4 -8 3 -10 -2 -5 -5 5 -9 12 -9 15 0 13 -16 32
-27 32 -6 0 -5 -7 3 -17 13 -16 12 -17 -3 -4 -10 7 -15 17 -12 22 4 8 1244 14
1244 6 0 -1 -25 -77 -55 -167 -30 -90 -55 -169 -54 -175 1 -11 119 334 119
347 0 5 -288 8 -641 8 -509 0 -639 -3 -633 -12 5 -8 1 -8 -12 2 -10 8 -21 16
-23 17 -3 2 295 3 661 3 l666 -1 -104 -317z m586 308 c-206 -3 -372 -6 -367
-8 4 -1 172 -2 374 -2 243 0 369 3 371 10 2 5 8 10 12 10 7 0 -204 -296 -366
-514 l-20 -28 -119 163 c-65 90 -154 212 -197 271 l-78 107 383 -2 382 -1
-375 -6z m520 -35 c7 -25 15 -43 18 -41 2 3 0 19 -6 35 l-11 31 619 0 c368 0
621 -4 625 -9 3 -5 -9 -19 -27 -31 l-33 -22 30 26 c17 14 26 26 22 26 -14 0
-66 -43 -62 -50 3 -4 -3 -14 -13 -21 -15 -13 -16 -12 -3 4 7 9 9 17 3 17 -13
0 -33 -25 -26 -32 3 -3 -10 -16 -28 -28 l-33 -22 30 26 c17 14 26 26 22 26
-14 0 -66 -43 -62 -50 3 -4 -3 -14 -13 -21 -15 -13 -16 -12 -3 4 7 9 9 17 3
17 -13 0 -33 -25 -26 -32 3 -3 -10 -16 -28 -28 l-33 -22 30 26 c17 14 26 26
22 26 -14 0 -66 -43 -62 -50 3 -4 -3 -14 -13 -21 -15 -13 -16 -12 -3 4 7 9 9
17 3 17 -13 0 -33 -25 -26 -32 3 -3 -10 -16 -28 -28 l-33 -22 30 26 c17 14 26
26 22 26 -14 0 -66 -43 -62 -50 3 -4 -3 -14 -13 -21 -15 -13 -16 -12 -3 4 7 9
9 17 3 17 -13 0 -33 -25 -26 -32 3 -3 -10 -16 -28 -28 l-33 -22 30 26 c17 14
26 26 22 26 -14 0 -62 -41 -62 -52 0 -5 -21 -25 -47 -45 -27 -19 -48 -33 -48
-30 0 3 20 20 45 38 25 18 43 34 41 37 -6 6 -101 -68 -101 -78 0 -5 -7 -15
-15 -22 -12 -11 -12 -11 -1 5 7 9 9 17 3 17 -13 0 -33 -25 -26 -32 3 -3 -10
-16 -28 -28 l-33 -22 30 26 c17 14 26 26 22 26 -14 0 -62 -41 -62 -52 0 -5
-21 -25 -47 -45 -27 -19 -48 -33 -48 -30 0 3 20 20 45 38 25 18 43 34 41 37
-7 6 -101 -68 -101 -80 0 -5 -21 -25 -47 -45 -27 -19 -48 -33 -48 -30 0 3 20
20 45 38 25 18 43 34 41 36 -7 8 -106 -69 -101 -77 3 -5 -8 -18 -25 -30 -17
-12 -30 -18 -29 -13 1 4 -2 19 -8 33 -6 14 -23 64 -39 112 -15 48 -30 86 -32
83 -2 -2 13 -54 33 -114 20 -61 35 -115 33 -120 -2 -4 -60 167 -129 380 -70
214 -123 389 -119 389 4 0 13 -20 20 -45z m-758 -255 c177 -245 211 -294 193
-278 -4 4 -13 4 -19 -1 -15 -12 -242 -82 -230 -71 5 4 56 23 114 41 58 17 109
35 113 39 5 4 -72 118 -170 253 -98 135 -179 244 -181 242 -2 -1 76 -112 173
-245 97 -133 175 -243 173 -244 -12 -8 -557 -180 -570 -180 -10 0 -18 -6 -18
-13 0 -6 -4 -14 -9 -17 -5 -3 10 54 33 127 149 464 201 616 207 610 3 -5 89
-123 191 -263z m892 -373 c19 -59 30 -105 25 -101 -5 3 -9 12 -9 20 0 8 -4 13
-9 10 -4 -3 -133 35 -285 84 -152 50 -282 90 -289 89 -6 0 38 -16 98 -36 61
-19 114 -39 119 -43 8 -8 -209 56 -226 66 -4 3 -4 12 -1 21 5 12 3 14 -8 8 -7
-5 1 11 19 35 18 25 106 145 195 268 l162 223 88 -268 c48 -147 102 -316 121
-376z m827 161 c-312 -429 -321 -440 -355 -408 -5 5 2 7 15 4 40 -7 2 7 -163
61 -87 29 -158 49 -158 45 0 -4 48 -22 108 -40 59 -17 111 -36 117 -41 5 -6
-3 -6 -20 0 -17 5 -68 22 -115 36 -101 33 -110 39 -86 63 11 9 15 11 11 3 -5
-9 -3 -12 6 -9 8 3 13 10 12 16 -2 6 12 21 30 32 l32 22 -30 -26 c-16 -14 -26
-26 -22 -26 14 0 66 43 62 50 -3 4 3 14 13 21 15 13 16 12 3 -3 -7 -10 -9 -18
-3 -18 12 0 31 22 29 33 -1 5 19 24 46 44 26 19 47 33 47 30 0 -3 -20 -20 -45
-38 -25 -18 -43 -34 -41 -36 7 -8 106 69 101 77 -3 5 9 18 27 30 l33 22 -30
-26 c-16 -14 -26 -26 -22 -26 14 0 66 43 62 50 -3 4 3 14 13 21 15 13 16 12 3
-3 -7 -10 -9 -18 -3 -18 13 0 33 25 26 32 -3 3 10 16 28 28 l33 22 -30 -26
c-16 -14 -26 -26 -22 -26 14 0 66 43 62 50 -3 4 3 14 13 21 15 13 16 12 3 -3
-7 -10 -9 -18 -3 -18 13 0 33 25 26 32 -3 3 10 16 28 28 l33 22 -30 -26 c-16
-14 -26 -26 -22 -26 14 0 66 43 62 50 -3 4 3 14 13 21 15 13 16 12 3 -3 -7
-10 -9 -18 -3 -18 13 0 33 25 26 32 -3 3 10 16 28 28 l33 22 -30 -26 c-16 -14
-26 -26 -22 -26 14 0 66 43 62 50 -3 4 3 14 13 21 15 13 16 12 3 -3 -7 -10 -9
-18 -3 -18 13 0 33 25 26 32 -3 3 10 16 28 28 l33 22 -30 -26 c-16 -14 -26
-26 -22 -26 14 0 62 41 62 52 0 5 22 26 50 46 27 20 45 31 41 23 -6 -9 -5 -12
5 -9 8 3 13 10 12 16 -1 5 5 16 15 24 15 12 16 11 4 -4 -8 -9 -9 -19 -4 -22 9
-5 23 15 26 35 1 6 46 47 53 49 1 0 -137 -190 -306 -422z m-3126 310 c0 -6 6
-13 14 -16 8 -3 11 0 7 7 -11 17 0 13 15 -6 12 -15 12 -16 -1 -8 -13 8 -13 7
-1 -8 16 -20 36 -23 25 -4 -4 7 -3 9 2 4 5 -5 9 -12 9 -17 0 -10 95 -84 101
-78 2 3 -16 19 -41 37 -25 18 -45 35 -45 38 0 3 21 -11 48 -30 26 -20 47 -41
47 -48 0 -7 6 -14 14 -17 8 -3 11 0 7 7 -11 17 0 13 15 -6 12 -14 12 -16 -1
-9 -8 4 1 -6 20 -23 19 -17 40 -31 45 -31 6 0 -3 12 -20 26 l-30 26 33 -22
c18 -12 30 -25 28 -29 -5 -8 47 -51 61 -51 4 0 -5 12 -22 26 l-30 26 33 -22
c18 -12 31 -25 28 -28 -7 -7 13 -32 26 -32 6 0 4 8 -3 18 -11 15 -11 15 1 4 8
-7 15 -18 15 -24 0 -6 6 -13 14 -16 8 -3 11 0 7 7 -11 17 0 13 15 -6 12 -15
12 -16 -1 -8 -13 8 -13 7 -1 -8 16 -20 36 -23 25 -4 -4 6 -5 10 -1 7 3 -3 5
-8 4 -11 -3 -9 24 -39 35 -39 6 0 4 8 -3 18 -13 15 -12 16 3 3 10 -7 16 -17
13 -21 -4 -7 48 -50 62 -50 4 0 -5 12 -22 26 l-30 26 33 -22 c18 -12 31 -25
28 -28 -7 -7 13 -32 26 -32 6 0 4 8 -3 18 -11 15 -11 15 1 4 8 -7 15 -18 15
-24 0 -6 6 -13 14 -16 9 -3 11 0 5 9 -7 12 -5 12 9 0 20 -16 23 -26 5 -15 -9
5 -9 2 1 -9 16 -20 36 -23 25 -4 -4 7 -3 9 2 4 5 -5 9 -12 9 -15 0 -13 16 -32
27 -32 6 0 5 7 -3 18 -13 15 -12 16 3 3 10 -7 16 -17 13 -21 -4 -7 48 -50 62
-50 4 0 -5 12 -22 26 l-30 26 33 -22 c18 -12 31 -25 28 -28 -3 -3 -1 -11 5
-18 13 -16 17 -14 -128 -59 -67 -21 -120 -42 -117 -46 2 -4 -1 -11 -7 -15 -8
-5 -9 -3 -4 6 8 12 2 12 -56 -3 -13 -4 -522 707 -510 711 9 3 9 8 -1 20 -10
15 -10 15 2 4 8 -7 15 -18 15 -24z m1770 -460 c5 -5 -5 -3 -23 3 -18 6 -35 9
-37 7 -3 -2 122 -46 278 -97 155 -51 289 -95 297 -98 13 -6 13 -4 0 13 -14 17
-13 18 1 7 9 -7 19 -10 22 -6 4 3 7 4 7 0 0 -3 -15 -16 -32 -28 -22 -16 -28
-17 -19 -6 7 9 9 17 3 17 -11 0 -38 -30 -34 -39 1 -3 -18 -21 -43 -39 -25 -19
-45 -32 -45 -29 0 3 20 20 45 38 25 18 43 34 41 36 -7 7 -106 -68 -103 -78 1
-5 -19 -26 -45 -45 -27 -20 -48 -34 -48 -31 0 3 20 20 45 38 25 18 43 34 41
36 -7 7 -106 -68 -103 -78 1 -5 -19 -26 -45 -45 -27 -20 -48 -34 -48 -31 0 3
20 20 45 38 25 18 43 34 41 36 -7 8 -106 -69 -101 -77 3 -5 -9 -18 -27 -30
l-33 -22 30 26 c17 14 26 26 22 26 -14 0 -66 -43 -62 -50 3 -4 -3 -14 -13 -21
-15 -13 -16 -12 -3 4 7 9 9 17 3 17 -13 0 -33 -25 -26 -32 3 -3 -10 -16 -28
-28 l-33 -22 30 26 c17 14 26 26 22 26 -14 0 -66 -43 -62 -50 3 -4 -3 -14 -13
-21 -16 -13 -16 -13 -2 5 14 18 13 19 -3 13 -17 -6 -17 11 -17 308 l1 314 32
-11 c18 -6 36 -15 42 -20z m-1456 -135 c61 -84 111 -156 111 -160 0 -4 -7 2
-15 13 -8 10 -15 14 -15 8 0 -6 -117 -48 -259 -94 -143 -46 -259 -88 -258 -93
1 -5 -4 -11 -11 -12 -7 -2 -8 -1 -2 2 5 2 7 9 4 15 -4 6 -17 -2 -31 -18 -31
-36 -5 1 195 278 86 120 160 216 164 215 3 -1 56 -71 117 -154z m2931 -30 c74
-103 152 -211 173 -240 21 -30 35 -53 30 -52 -20 3 -27 -2 -13 -12 13 -9 13
-10 0 -6 -8 2 -14 9 -13 14 1 5 -115 47 -258 93 -142 46 -259 88 -259 94 0 6
-8 2 -16 -9 -9 -11 -15 -15 -13 -10 6 17 223 315 229 315 3 -1 66 -85 140
-187z m-1736 155 c-5 -8 0 -9 17 -4 13 3 36 9 52 12 l27 7 0 -301 c0 -283 -1
-301 -17 -295 -16 6 -17 5 -3 -13 14 -17 14 -18 -2 -6 -10 8 -16 18 -15 22 2
9 -92 84 -99 78 -2 -3 16 -19 41 -37 25 -18 45 -35 45 -38 0 -3 -21 11 -47 30
-27 20 -48 40 -48 45 0 12 -94 86 -101 80 -2 -3 16 -19 41 -37 25 -18 45 -35
45 -38 0 -3 -21 11 -47 30 -27 20 -48 40 -48 45 0 11 -48 52 -62 52 -4 0 6
-12 22 -26 l30 -26 -33 22 c-18 12 -31 25 -28 28 7 7 -13 32 -26 32 -6 0 -4
-8 3 -17 13 -16 12 -17 -3 -4 -10 7 -16 17 -13 21 4 7 -48 50 -62 50 -4 0 6
-12 22 -26 l30 -26 -33 22 c-18 12 -31 25 -28 28 7 7 -13 32 -26 32 -6 0 -4
-8 3 -17 13 -16 12 -17 -3 -4 -10 7 -16 17 -13 21 4 7 -48 50 -62 50 -4 0 6
-12 22 -26 l30 -26 -33 22 c-18 12 -31 25 -28 28 7 7 -13 32 -26 32 -6 0 -4
-8 3 -17 13 -17 12 -17 -4 -4 -17 13 -17 16 -3 26 9 7 13 14 10 17 -3 4 0 9 7
14 8 4 10 3 5 -4 -4 -7 -4 -12 0 -12 16 0 453 144 452 149 -1 12 2 21 8 21 3
0 2 -5 -2 -12z m-634 -205 c0 -4 -49 -158 -109 -343 -60 -184 -145 -444 -188
-576 l-78 -242 0 524 c0 288 3 524 8 524 4 0 7 -214 7 -477 0 -262 3 -474 6
-471 3 4 5 215 4 470 l-1 463 158 52 c86 29 159 51 161 48 2 -2 -21 -79 -52
-172 -31 -92 -56 -173 -55 -178 0 -8 91 251 125 357 4 15 -7 13 -82 -12 -48
-17 -84 -26 -80 -22 7 6 152 59 169 61 4 1 7 -2 7 -6z m118 -31 c18 -14 30
-27 27 -30 -7 -7 15 -32 27 -32 6 0 4 8 -3 18 -13 15 -12 16 3 3 10 -7 16 -17
13 -21 -4 -7 48 -50 62 -50 4 0 -5 12 -22 26 l-30 26 32 -22 c18 -11 32 -25
30 -30 -2 -9 92 -84 99 -78 2 3 -16 19 -41 37 -25 18 -45 35 -45 38 0 3 21
-11 48 -30 26 -20 47 -41 47 -48 0 -7 6 -14 14 -17 9 -3 11 0 5 9 -7 12 -5 12
9 0 20 -16 22 -25 5 -16 -7 4 3 -7 22 -24 19 -17 40 -31 45 -31 6 0 -3 12 -20
26 l-30 26 32 -22 c18 -11 32 -25 30 -30 -2 -9 92 -84 99 -78 2 3 -16 19 -41
37 -25 18 -45 35 -45 38 0 3 21 -11 48 -30 26 -20 47 -41 47 -48 0 -7 6 -14
14 -17 8 -3 11 0 7 7 -11 17 0 13 15 -6 12 -14 12 -16 -1 -9 -8 4 1 -6 20 -23
19 -17 40 -31 45 -31 6 0 -3 12 -20 26 l-30 26 33 -22 c18 -12 31 -25 28 -28
-3 -3 -1 -11 5 -18 7 -9 1 -18 -23 -34 l-33 -22 30 26 c17 14 26 26 22 26 -14
0 -66 -43 -62 -50 3 -4 -3 -14 -13 -21 -15 -13 -16 -12 -3 4 7 9 9 17 3 17
-13 0 -33 -25 -26 -32 3 -3 -10 -16 -28 -28 l-33 -22 30 26 c17 14 26 26 22
26 -14 0 -62 -41 -62 -52 0 -5 -21 -25 -47 -45 -27 -19 -48 -33 -48 -30 0 3
20 20 45 38 25 18 43 34 41 37 -7 6 -101 -68 -101 -80 0 -5 -21 -25 -47 -45
-27 -19 -48 -33 -48 -30 0 3 20 20 45 38 25 18 43 34 41 37 -7 6 -101 -68
-101 -80 0 -5 -21 -25 -47 -45 -27 -19 -48 -33 -48 -30 0 3 20 20 45 38 25 18
43 34 41 37 -7 6 -101 -68 -101 -80 0 -5 -21 -25 -47 -45 -27 -19 -48 -33 -48
-30 0 3 20 20 45 38 25 18 43 34 41 36 -7 8 -106 -69 -101 -77 3 -5 -9 -18
-27 -30 l-33 -22 30 26 c17 14 26 26 22 26 -14 0 -66 -43 -62 -50 3 -4 -3 -14
-13 -21 -15 -13 -16 -12 -3 4 7 9 9 17 3 17 -13 0 -33 -25 -26 -32 3 -3 -10
-16 -28 -28 l-33 -22 30 26 c17 14 26 26 22 26 -14 0 -66 -43 -62 -50 3 -4 -3
-14 -13 -21 -15 -13 -16 -12 -3 4 7 9 9 17 3 17 -13 0 -33 -25 -26 -32 3 -3
-10 -16 -28 -28 l-33 -22 30 26 c17 14 26 26 22 26 -14 0 -66 -43 -62 -50 3
-4 -3 -14 -13 -21 -15 -13 -16 -12 -3 4 7 9 9 17 3 17 -12 0 -34 -25 -27 -32
3 -3 -20 -25 -51 -48 -32 -24 -55 -37 -52 -29 3 8 76 232 163 499 86 267 177
547 201 623 31 95 49 135 57 130 7 -3 27 -18 45 -31z m1451 -209 c44 -137 136
-421 205 -632 69 -212 124 -386 122 -388 -1 -2 -11 7 -22 19 -10 12 -13 18 -5
13 10 -5 12 -3 7 11 -34 109 -125 367 -125 359 -1 -6 24 -85 54 -175 32 -94
51 -166 45 -168 -6 -2 -7 -9 -3 -15 4 -7 0 -6 -10 1 -9 8 -15 19 -14 24 1 6
-4 13 -12 16 -9 3 -11 0 -6 -9 5 -8 6 -12 2 -9 -3 3 -5 8 -4 11 3 9 -24 39
-35 39 -6 0 -4 -8 3 -17 13 -16 12 -17 -3 -4 -10 7 -16 17 -13 21 4 7 -48 50
-62 50 -4 0 6 -12 22 -26 l30 -26 -33 22 c-18 12 -31 25 -28 28 7 7 -13 32
-26 32 -6 0 -4 -8 3 -17 13 -16 12 -17 -3 -5 -10 8 -16 19 -15 24 1 6 -4 13
-12 16 -10 3 -11 0 -5 -9 7 -12 5 -12 -9 0 -20 16 -23 26 -4 15 8 -5 8 -2 -2
9 -15 19 -36 23 -25 5 5 -7 3 -8 -5 -4 -7 5 -10 11 -7 14 7 7 -13 32 -26 32
-6 0 -4 -8 3 -17 13 -16 12 -17 -3 -4 -10 7 -16 17 -13 21 4 7 -48 50 -62 50
-4 0 6 -12 22 -26 l30 -26 -33 22 c-18 12 -31 25 -28 28 7 7 -13 32 -26 32 -6
0 -4 -8 3 -17 13 -16 12 -17 -3 -5 -10 8 -16 19 -15 24 1 6 -4 13 -12 16 -8 3
-11 0 -7 -7 11 -17 0 -13 -15 6 -12 15 -12 16 1 8 13 -8 13 -7 1 8 -16 20 -36
23 -25 5 4 -7 4 -10 0 -6 -4 3 -6 8 -4 11 5 6 -23 37 -34 37 -6 0 -4 -8 3 -17
13 -16 12 -17 -3 -4 -10 7 -16 17 -13 21 4 7 -48 50 -62 50 -4 0 6 -12 22 -26
l30 -26 -33 22 c-18 12 -31 25 -28 28 7 7 -13 32 -26 32 -6 0 -4 -8 3 -17 13
-16 12 -17 -3 -4 -10 7 -16 17 -13 21 4 7 -48 50 -62 50 -4 0 6 -12 22 -26
l30 -26 -32 22 c-18 11 -32 26 -30 32 1 6 -4 13 -12 16 -8 3 -11 0 -7 -7 11
-17 0 -13 -15 6 -12 14 -12 16 1 9 8 -4 -1 6 -20 23 -19 17 -39 31 -45 31 -5
0 4 -12 20 -26 l30 -26 -33 22 c-18 12 -31 25 -28 28 7 7 -13 32 -26 32 -6 0
-4 -8 3 -17 13 -16 12 -17 -3 -4 -10 7 -16 17 -13 21 4 7 -48 50 -62 50 -4 0
6 -12 22 -26 l30 -26 -32 22 c-18 11 -32 26 -30 32 1 6 -4 13 -12 16 -8 3 -11
0 -7 -7 11 -17 0 -13 -15 6 -12 15 -12 16 1 8 13 -8 13 -7 1 8 -15 19 -36 23
-25 5 4 -7 3 -8 -5 -4 -6 4 -8 13 -4 19 4 7 8 16 8 20 0 9 95 82 95 74 0 -3
-20 -20 -45 -38 -25 -18 -43 -34 -41 -37 7 -6 101 69 99 78 -2 5 12 19 30 30
l32 22 -30 -26 c-16 -14 -26 -26 -22 -26 14 0 66 43 62 50 -3 4 3 14 13 21 15
13 16 12 3 -3 -8 -11 -9 -18 -3 -18 11 0 27 19 27 33 0 9 95 82 95 74 0 -3
-20 -20 -45 -38 -25 -18 -43 -34 -41 -37 7 -6 101 68 101 80 0 5 21 25 48 45
26 19 47 33 47 30 0 -3 -20 -20 -45 -38 -25 -18 -43 -34 -41 -36 7 -7 106 68
103 78 -1 5 19 26 46 45 26 20 47 34 47 31 0 -3 -20 -20 -45 -38 -25 -18 -43
-34 -41 -37 7 -6 101 68 101 80 0 8 72 68 81 68 2 0 39 -111 83 -247z m76 217
c39 -12 74 -26 80 -31 5 -5 -30 4 -78 20 -76 26 -87 28 -83 13 35 -110 135
-395 135 -387 1 5 -26 92 -60 193 -34 101 -59 185 -57 187 2 3 75 -19 161 -48
l158 -52 -1 -463 c-1 -255 1 -466 4 -470 3 -3 6 208 6 469 l0 475 -50 13 c-27
7 -52 16 -55 21 -3 4 21 0 53 -10 l57 -18 2 -513 2 -514 -20 60 c-11 33 -76
233 -145 445 -69 212 -143 439 -165 505 -43 133 -44 139 -26 133 6 -3 44 -15
82 -28z m-2095 -319 l-2 -179 -26 8 c-15 5 -99 32 -187 61 -88 28 -164 55
-169 59 -4 5 74 -18 175 -51 101 -32 189 -59 194 -58 6 0 -111 40 -259 89
-149 49 -272 88 -274 86 -2 -2 14 -9 35 -16 21 -7 42 -16 48 -21 5 -5 -15 -1
-45 9 -30 11 -61 21 -68 23 -7 3 5 9 27 15 22 6 38 7 35 3 -10 -17 21 -8 256
71 129 43 241 78 248 79 10 1 12 -38 12 -178z m2707 99 c250 -82 268 -87 258
-70 -5 7 51 -6 63 -15 2 -2 -25 -12 -59 -24 -35 -12 -59 -17 -54 -12 6 5 27
14 48 21 21 7 37 14 35 16 -2 2 -124 -36 -272 -84 -147 -48 -264 -90 -261 -94
4 -3 2 -9 -4 -12 -6 -4 -10 59 -11 174 0 99 2 180 6 180 4 0 116 -36 251 -80z
m-1537 -315 c-9 -11 -9 -15 -1 -15 9 0 11 -47 9 -182 l-3 -182 -117 -37 c-65
-20 -116 -33 -113 -30 2 4 54 23 116 41 62 19 107 36 102 37 -5 2 -99 -25
-209 -61 -494 -160 -613 -200 -609 -204 2 -2 25 3 52 12 26 9 43 12 38 7 -15
-13 -167 -61 -176 -55 -5 3 -9 1 -9 -4 0 -5 -10 -12 -22 -15 -22 -6 -22 -6 2
13 64 50 114 83 101 67 -7 -9 -9 -17 -3 -17 13 0 33 25 26 32 -3 3 9 16 27 29
18 13 29 17 24 10 -5 -9 -3 -12 6 -9 8 3 13 10 12 16 -1 5 5 16 15 24 15 12
16 11 3 -4 -7 -10 -9 -18 -3 -18 13 0 33 25 26 32 -3 3 10 16 28 28 l33 22
-30 -26 c-16 -14 -26 -26 -22 -26 14 0 66 43 62 50 -3 4 3 14 13 21 15 13 16
12 3 -3 -7 -10 -9 -18 -3 -18 13 0 33 25 26 32 -3 3 10 16 28 28 l33 22 -30
-26 c-16 -14 -26 -26 -22 -26 14 0 66 43 62 50 -3 4 3 14 13 21 15 13 16 12 3
-3 -7 -10 -9 -18 -3 -18 13 0 33 25 26 32 -3 3 10 16 28 28 l33 22 -30 -26
c-16 -14 -26 -26 -22 -26 14 0 66 43 62 50 -3 4 3 14 13 21 15 13 16 12 3 -3
-7 -10 -9 -18 -3 -18 13 0 33 25 26 32 -3 3 10 16 28 28 l33 22 -30 -26 c-16
-14 -26 -26 -22 -26 14 0 66 43 62 50 -3 4 3 14 13 21 15 13 16 12 3 -3 -7
-10 -9 -18 -3 -18 13 0 33 25 26 32 -3 3 10 16 28 28 l33 22 -30 -26 c-16 -14
-26 -26 -22 -26 14 0 66 43 62 50 -3 4 3 14 13 21 15 13 16 12 3 -3 -7 -10 -9
-18 -3 -18 13 0 33 25 26 32 -3 3 10 16 28 28 l33 22 -30 -26 c-16 -14 -26
-26 -22 -26 13 0 62 41 62 52 0 8 83 77 94 78 2 0 -2 -7 -9 -15z m125 -17 c0
-6 6 -13 14 -16 9 -3 11 0 6 9 -5 8 -6 12 -2 9 3 -3 6 -9 7 -15 3 -15 21 -35
32 -35 6 0 4 8 -3 18 -13 15 -12 16 3 3 10 -7 16 -17 13 -21 -4 -7 48 -50 62
-50 4 0 -5 12 -22 26 l-30 26 33 -22 c18 -12 31 -25 28 -28 -7 -7 13 -32 26
-32 6 0 4 8 -3 18 -13 15 -12 16 3 4 10 -8 16 -19 15 -24 -1 -6 4 -13 12 -16
8 -3 11 0 7 7 -11 17 0 13 15 -6 12 -15 12 -16 -1 -8 -13 8 -13 7 -1 -8 16
-20 36 -23 25 -4 -4 7 -3 9 2 4 5 -5 9 -12 9 -15 0 -13 16 -32 27 -32 6 0 5 7
-3 18 -13 15 -12 16 3 3 10 -7 16 -17 13 -21 -4 -7 48 -50 62 -50 4 0 -5 12
-22 26 l-30 26 33 -22 c18 -12 31 -25 28 -28 -7 -7 13 -32 26 -32 6 0 4 8 -3
18 -13 15 -12 16 3 3 10 -7 16 -17 13 -21 -4 -7 48 -50 62 -50 4 0 -5 12 -22
26 l-30 26 33 -22 c18 -12 31 -25 28 -28 -7 -7 13 -32 26 -32 6 0 4 8 -3 18
-13 15 -12 16 3 3 10 -7 16 -17 13 -21 -4 -7 48 -50 62 -50 4 0 -5 12 -22 26
l-30 26 33 -22 c18 -12 31 -25 28 -28 -7 -7 13 -32 26 -32 6 0 4 8 -3 18 -13
15 -12 16 3 3 10 -7 16 -17 13 -21 -4 -7 48 -50 62 -50 4 0 -5 12 -22 26 l-30
26 33 -22 c18 -12 31 -25 28 -28 -7 -7 13 -32 26 -32 6 0 4 8 -3 18 -11 15
-11 15 1 4 8 -7 15 -18 15 -24 0 -6 6 -13 14 -16 9 -3 11 0 6 9 -5 7 6 3 24
-10 18 -13 30 -26 27 -29 -3 -3 -1 -11 5 -19 14 -16 1 -17 -36 -3 -87 33 -769
250 -778 247 -5 -1 39 -18 99 -36 60 -18 113 -37 118 -42 8 -7 -209 57 -226
67 -4 3 -7 93 -7 201 0 153 3 193 12 184 7 -7 12 -17 12 -23z m-95 -735 l0
-326 -38 54 c-42 60 -271 375 -310 427 -14 18 -21 32 -16 31 5 -1 16 1 24 4
16 8 312 107 317 107 2 0 3 -131 3 -291 -1 -160 1 -294 4 -297 3 -3 6 135 6
306 0 172 2 312 5 312 3 0 5 -147 5 -327z m68 -283 c1 8 2 143 2 299 0 226 2
282 12 279 7 -3 78 -27 158 -53 80 -26 151 -52 158 -58 8 -6 12 -6 12 1 0 6
-30 20 -67 32 -38 13 -72 26 -77 31 -8 7 99 -23 134 -38 8 -3 19 -5 23 -4 5 1
5 -4 1 -11 -13 -21 -355 -492 -365 -502 -5 -6 -8 118 -7 315 l3 324 5 -315 c3
-173 7 -308 8 -300z"/>
<path d="M2488 4268 c-141 -194 -270 -371 -287 -394 l-30 -41 104 -144 c58
-79 108 -145 113 -147 7 -2 196 567 189 574 -2 2 -45 -125 -96 -282 -51 -157
-94 -284 -96 -282 -15 17 -196 271 -198 277 -4 13 517 721 523 711 3 -5 13 11
22 36 8 24 15 44 14 44 -1 0 -117 -159 -258 -352z"/>
</g>
</svg>
